<?xml version="1.0" encoding="utf-8"?>
<!-- Generator: Adobe Illustrator 23.0.0, SVG Export Plug-In . SVG Version: 6.00 Build 0)  -->
<svg fill="forestgreen" version="1.1" id="Capa_1" xmlns="http://www.w3.org/2000/svg" xmlns:xlink="http://www.w3.org/1999/xlink" x="0px" y="0px"
	 viewBox="0 0 841.9 595.3" style="enable-background:new 0 0 841.9 595.3;" xml:space="preserve">
<path d="M590.6,299.4L454.8,161.9L335.1,283l-83.5-69.9l-190,158.9h185.5h194.4h77.3h143.5h145.5L663.4,225.8L590.6,299.4z
	 M606.5,288.4c0.7,0.1,1.5,0.1,2.4,0.2c1.2,0,2.6,0.1,4.1,0.2c1.5,0,3.1,0,4.7,0.1c1.6,0,3.2,0,4.7-0.1c1.5,0,2.9-0.1,4.1-0.2
	c2.4-0.1,4-0.3,4-0.3s-1.6-0.2-4-0.3c-1.2,0-2.6-0.1-4.1-0.2c-1.5,0-3.1,0-4.7-0.1c-1.6,0-3.2,0-4.7,0.1c-1.5,0-2.9,0.1-4.1,0.2
	c-0.8,0-1.5,0.1-2.1,0.1l27.2-27.6c0.2,0,1,0.2,2.1,0.3c0.7,0,1.4,0.1,2.2,0.2c0.8,0,1.7,0,2.6,0.1c0.9,0,1.7,0,2.6-0.1
	c0.8,0,1.6-0.1,2.2-0.2c1.3-0.1,2.2-0.3,2.2-0.3s-0.9-0.2-2.2-0.3c-0.7,0-1.4-0.1-2.2-0.2c-0.8,0-1.7,0-2.6-0.1
	c-0.9,0-1.7,0-2.6,0.1c-0.8,0-1.6,0.1-2.2,0.2c-1,0.1-1.7,0.2-2,0.3l29.3-29.6l0.5,0.6l-17.5,36.6l32.6,1.1l-33.7,1.2l-19.7,41.4
	L674,313l-49.8,1.4l-5.1,10.7l108.3,2.2l-107.2,2.2l-20.1-20.3c1.3,0,2.7,0,4.1,0.1c1.6,0,3.2,0,4.7-0.1c1.5,0,2.9-0.1,4.1-0.2
	c2.4-0.1,4-0.3,4-0.3s-1.6-0.2-4-0.3c-1.2,0-2.6-0.1-4.1-0.2c-1.5,0-3.1,0-4.7-0.1c-1.6,0-3.2,0-4.7,0.1c-0.1,0-0.2,0-0.3,0
	l-6.1-6.2L606.5,288.4z M276.1,344.3c4.8,0,10-0.1,15.2-0.1c5.2,0,10.3,0.1,15.2,0.1c4.9,0,9.4,0.2,13.3,0.3
	c3.9,0.1,7.1,0.3,9.4,0.4c2.3,0.1,3.6,0.2,3.6,0.2s-1.3,0.1-3.6,0.2c-2.3,0.1-5.5,0.3-9.4,0.4c-3.9,0.1-8.4,0.3-13.3,0.3
	c-4.9,0-10,0.1-15.2,0.1c-5.2,0-10.3-0.1-15.2-0.1c-4.9,0-9.4-0.2-13.3-0.3c-3.9-0.1-7.1-0.3-9.4-0.4c-2.3-0.1-3.6-0.2-3.6-0.2
	s1.3-0.1,3.6-0.2c2.3-0.1,5.5-0.3,9.4-0.4C266.7,344.5,271.3,344.3,276.1,344.3z M318.6,299.5c-3.2,0.1-6.6,0.1-10,0.1
	c-3.4,0-6.8,0-10-0.1c-3.2-0.1-6.2-0.2-8.7-0.3c-5.1-0.2-8.5-0.5-8.5-0.5s3.4-0.3,8.5-0.5c2.5-0.1,5.5-0.2,8.7-0.3
	c3.2-0.1,6.6-0.1,10-0.1c3.4,0,6.8,0,10,0.1c3.2,0.1,6.2,0.2,8.7,0.3c5.1,0.2,8.5,0.5,8.5,0.5s-3.4,0.3-8.5,0.5
	C324.8,299.3,321.8,299.5,318.6,299.5z M266.9,245.2c0,0-1.7,0.2-4.2,0.4c-2.5,0.2-5.9,0.3-9.3,0.3c-3.4,0-6.8-0.1-9.3-0.3
	c-2.5-0.2-4.2-0.4-4.2-0.4s1.7-0.2,4.2-0.4c2.5-0.2,5.9-0.3,9.3-0.3c3.4,0,6.8,0.1,9.3,0.3C265.2,245,266.9,245.2,266.9,245.2z
	 M453.3,259.2c3.5-0.1,7.2-0.1,10.9-0.1c3.7,0,7.4,0,10.9,0.1c3.5,0.1,6.7,0.3,9.5,0.3c2.8,0.1,5.1,0.3,6.7,0.4
	c1.6,0.1,2.6,0.2,2.6,0.2s-0.9,0.1-2.6,0.2c-1.6,0.1-3.9,0.3-6.7,0.4c-2.8,0.1-6,0.3-9.5,0.3c-3.5,0.1-7.2,0.1-10.9,0.1
	c-3.7,0-7.4,0-10.9-0.1c-3.5-0.1-6.7-0.3-9.5-0.3c-2.8-0.1-5.1-0.3-6.7-0.4c-1.6-0.1-2.6-0.2-2.6-0.2s0.9-0.1,2.6-0.2
	c1.6-0.1,3.9-0.3,6.7-0.4C446.5,259.5,449.8,259.3,453.3,259.2z M450.5,240.4c0,0,3.7-0.3,9.3-0.5c2.8-0.1,6-0.2,9.5-0.3
	c3.5,0,7.2-0.1,10.9-0.1c3.7,0,7.4,0.1,10.9,0.1c3.5,0,6.7,0.2,9.5,0.3c5.6,0.2,9.3,0.5,9.3,0.5s-3.7,0.3-9.3,0.5
	c-2.8,0.1-6,0.2-9.5,0.3c-3.5,0-7.2,0.1-10.9,0.1c-3.7,0-7.4-0.1-10.9-0.1c-3.5,0-6.7-0.2-9.5-0.3
	C454.2,240.7,450.5,240.4,450.5,240.4z M460.9,269.8c4.4-0.1,9.4-0.2,14.9-0.3c5.4,0,11.2-0.1,17-0.1c5.8,0,11.6,0.1,17,0.1
	c5.4,0,10.5,0.2,14.9,0.3c8.7,0.2,14.5,0.5,14.5,0.5s-5.8,0.3-14.5,0.5c-4.4,0.1-9.4,0.2-14.9,0.3c-5.4,0-11.2,0.1-17,0.1
	c-5.8,0-11.6-0.1-17-0.1c-5.4,0-10.5-0.2-14.9-0.3c-8.7-0.2-14.5-0.5-14.5-0.5S452.2,270,460.9,269.8z M476.1,204.3
	c0,0-1.9,0.3-4.6,0.5c-2.8,0.2-6.5,0.4-10.2,0.4c-3.7,0-7.4-0.2-10.2-0.4c-2.8-0.2-4.6-0.5-4.6-0.5s1.9-0.3,4.6-0.5
	c2.8-0.2,6.5-0.4,10.2-0.4c3.7,0,7.4,0.2,10.2,0.4C474.3,204.1,476.1,204.3,476.1,204.3z M666.1,352.6c5.9-0.1,12.8-0.2,20.2-0.3
	c7.4,0,15.3-0.1,23.1-0.1c7.9,0,15.7,0.1,23.1,0.1c7.4,0,14.3,0.2,20.2,0.3c11.8,0.2,19.7,0.5,19.7,0.5s-7.9,0.3-19.7,0.5
	c-5.9,0.1-12.8,0.2-20.2,0.3c-7.4,0-15.3,0.1-23.1,0.1c-7.9,0-15.7-0.1-23.1-0.1c-7.4-0.1-14.3-0.2-20.2-0.3
	c-11.8-0.2-19.7-0.5-19.7-0.5S654.3,352.8,666.1,352.6z M662.1,347.3c0,0,3.9-0.3,9.8-0.5c3-0.1,6.4-0.2,10.1-0.3
	c3.7,0,7.6-0.1,11.6-0.1c3.9,0,7.9,0.1,11.6,0.1c3.7,0,7.1,0.2,10.1,0.3c5.9,0.2,9.8,0.5,9.8,0.5s-3.9,0.3-9.8,0.5
	c-3,0.1-6.4,0.2-10.1,0.3c-3.7,0-7.6,0.1-11.6,0.1c-3.9,0-7.9-0.1-11.6-0.1c-3.7,0-7.1-0.2-10.1-0.3
	C666,347.6,662.1,347.3,662.1,347.3z M675,255.3c0,0-1.3,0.2-3.2,0.4c-1.9,0.1-4.5,0.3-7.1,0.3c-2.6,0-5.2-0.1-7.1-0.3
	c-1.9-0.2-3.2-0.3-3.2-0.3s1.3-0.2,3.2-0.3c1.9-0.1,4.5-0.3,7.1-0.3c2.6,0,5.2,0.1,7.1,0.3C673.7,255.1,675,255.3,675,255.3z
	 M549.6,344.4c0,0-1.4,0.1-3.9,0.2c-2.5,0.1-6,0.4-10.2,0.5c-4.2,0.1-9.2,0.3-14.5,0.4c-5.3,0.1-11,0.1-16.6,0.2
	c-5.7,0-11.3,0-16.6-0.2c-5.3-0.1-10.2-0.3-14.5-0.4c-4.2-0.1-7.8-0.4-10.2-0.5c-2.5-0.2-3.9-0.2-3.9-0.2s1.4-0.1,3.9-0.2
	c2.5-0.1,6-0.4,10.2-0.5c4.2-0.1,9.2-0.3,14.5-0.4c5.3-0.1,11-0.1,16.6-0.2c5.7,0,11.3,0,16.6,0.2c5.3,0.1,10.2,0.3,14.5,0.4
	c4.2,0.1,7.8,0.4,10.2,0.5C548.2,344.3,549.6,344.4,549.6,344.4z M693.2,284.1c3.9,0.2,6.5,0.4,6.5,0.4s-2.6,0.2-6.5,0.4
	c-1.9,0.1-4.2,0.2-6.6,0.2c-2.4,0-5,0.1-7.6,0.1c-2.6,0-5.2-0.1-7.6-0.1c-2.4,0-4.7-0.1-6.6-0.2c-3.9-0.2-6.5-0.3-6.5-0.3
	s2.6-0.2,6.5-0.3c1.9-0.1,4.2-0.2,6.6-0.2c2.4,0,5-0.1,7.6-0.1c2.6,0,5.2,0.1,7.6,0.1C689,283.9,691.3,284.1,693.2,284.1z
	 M659.7,300.9c3-0.1,6.6-0.1,10.3-0.2c3.8,0,7.8-0.1,11.9-0.1c4,0,8.1,0.1,11.9,0.1c3.8,0.1,7.3,0.1,10.3,0.2
	c6.1,0.2,10.1,0.4,10.1,0.4s-4,0.2-10.1,0.4c-3,0.1-6.6,0.1-10.3,0.2c-3.8,0-7.8,0.1-11.9,0.1c-4,0-8.1-0.1-11.9-0.1
	c-3.8-0.1-7.3-0.1-10.3-0.2c-6.1-0.2-10.1-0.3-10.1-0.3S653.7,301,659.7,300.9z M695.2,313.9c1.9-0.1,4.2-0.2,6.6-0.2
	c2.4,0,5-0.1,7.6-0.1c2.6,0,5.2,0.1,7.6,0.1c2.4,0,4.7,0.2,6.6,0.2c3.9,0.2,6.5,0.4,6.5,0.4s-2.6,0.2-6.5,0.4
	c-1.9,0.1-4.2,0.2-6.6,0.2c-2.4,0-5,0.1-7.6,0.1c-2.6,0-5.2-0.1-7.6-0.1c-2.4,0-4.7-0.2-6.6-0.2c-3.9-0.2-6.5-0.4-6.5-0.4
	S691.4,314.1,695.2,313.9z M699.5,363.8l-44.2,1.1l-2.2-2.2L699.5,363.8z M571.8,323.3c8.5,0.1,15.5,0.4,20.5,0.5
	c4.9,0.2,7.8,0.2,7.8,0.2s-2.8,0.1-7.8,0.2c-4.9,0.1-12,0.4-20.5,0.5c-8.5,0.1-18.4,0.3-29,0.4c-10.6,0.1-21.9,0.1-33.2,0.2
	c-11.3-0.1-22.6-0.1-33.2-0.2c-10.6,0-20.5-0.3-29-0.4c-8.5-0.1-15.5-0.4-20.5-0.5c-4.9-0.2-7.8-0.2-7.8-0.2s2.8-0.1,7.8-0.2
	c4.9-0.1,12-0.4,20.5-0.5c8.5-0.1,18.4-0.3,29-0.4c10.6-0.1,21.9-0.1,33.2-0.2c11.3,0.1,22.6,0.1,33.2,0.2
	C553.4,323,563.3,323.2,571.8,323.3z M506.7,360.2l-77,1.9l-4.7-3.9L506.7,360.2z M286.4,266c5.1,0.2,8.5,0.4,8.5,0.4
	s-3.4,0.2-8.5,0.4c-2.5,0.1-5.5,0.2-8.7,0.2c-3.2,0-6.6,0.1-10,0.1c-3.4,0-6.8-0.1-10-0.1c-3.2,0-6.2-0.2-8.7-0.2
	c-5.1-0.2-8.5-0.4-8.5-0.4s3.4-0.2,8.5-0.4c2.5-0.1,5.5-0.2,8.7-0.2c3.2,0,6.6-0.1,10-0.1c3.4,0,6.8,0.1,10,0.1
	C280.9,265.8,283.8,266,286.4,266z M246.8,294.7c4-0.1,8.6-0.1,13.6-0.2c5,0,10.3-0.1,15.6-0.1c5.3,0,10.6,0.1,15.6,0.1
	c5,0,9.6,0.2,13.6,0.2c8,0.2,13.3,0.4,13.3,0.4s-5.3,0.2-13.3,0.4c-4,0.1-8.6,0.2-13.6,0.2c-5,0-10.3,0.1-15.6,0.1
	c-5.3,0-10.6-0.1-15.6-0.1c-5-0.1-9.6-0.2-13.6-0.2c-8-0.2-13.3-0.4-13.3-0.4S238.9,294.9,246.8,294.7z M255.3,350.8
	c7.8-0.1,16.8-0.3,26.5-0.3c9.7,0,20-0.1,30.4-0.1c10.3,0,20.7,0.1,30.4,0.1c9.7,0,18.8,0.2,26.5,0.3c7.8,0.2,14.2,0.3,18.8,0.4
	c4.5,0.1,7.1,0.2,7.1,0.2s-2.6,0.1-7.1,0.2c-4.5,0.1-11,0.2-18.8,0.4c-7.8,0.1-16.8,0.3-26.5,0.3c-9.7,0-20,0.1-30.4,0.1
	c-10.3,0-20.7-0.1-30.4-0.1c-9.7,0-18.8-0.2-26.5-0.3c-7.8-0.2-14.2-0.3-18.8-0.4c-4.5-0.1-7.1-0.2-7.1-0.2s2.6-0.1,7.1-0.2
	C241,351.1,247.5,351,255.3,350.8z M373.1,251.8c0.9,0.1,2.1,0.2,3.5,0.2c1.7,0.1,3.7,0.2,5.9,0.2c2.2,0,4.4,0.1,6.7,0.1
	c2.3,0,4.6-0.1,6.7-0.1c2.2,0,4.2-0.2,5.9-0.2c3.4-0.2,5.7-0.4,5.7-0.4s-2.3-0.2-5.7-0.4c-1.7-0.1-3.7-0.2-5.9-0.2
	c-2.2,0-4.4-0.1-6.7-0.1c-2.3,0-4.6,0.1-6.7,0.1c-2.2,0-4.2,0.2-5.9,0.2c-1.2,0.1-2.2,0.1-3.1,0.2l39.1-39.6c0.3,0.1,1.4,0.2,3,0.4
	c1.9,0.2,4.4,0.3,6.9,0.3c2.5,0,5-0.1,6.9-0.3c1.9-0.2,3.1-0.4,3.1-0.4s-1.3-0.2-3.1-0.4c-1.9-0.2-4.4-0.3-6.9-0.3
	c-2.5,0-5,0.1-6.9,0.3c-1.4,0.2-2.5,0.3-2.9,0.4l42-42.6l0.8,0.8l-25.1,52.5l46.8,1.6l-48.3,1.7l-28.4,59.4l69.6,2l-71.5,2
	l-7.4,15.4l155.6,3.1l-158.6,3.2l-5.6,11.8l-22.7-18.9c1.6,0,3.2,0,4.7,0c3.3,0,6.3-0.2,9-0.2c5.2-0.2,8.7-0.4,8.7-0.4
	s-3.5-0.2-8.7-0.4c-2.6-0.1-5.7-0.2-9-0.2c-2.1,0-4.2,0-6.4-0.1l-19.2-16L373.1,251.8z M73.4,367.8l103.6-86.6
	c0.9,0.1,1.9,0.1,3.2,0.2c3.2,0.2,7.4,0.3,11.6,0.3c4.2,0,8.4-0.1,11.6-0.3c3.2-0.2,5.3-0.4,5.3-0.4s-2.1-0.2-5.3-0.4
	c-3.2-0.2-7.4-0.3-11.6-0.3c-4.2,0-8.4,0.1-11.6,0.3c-1,0.1-1.9,0.1-2.7,0.2l35.8-29.9c0.4,0.1,1.3,0.2,2.7,0.3
	c1.7,0.2,4,0.3,6.3,0.3c2.3,0,4.6-0.1,6.3-0.3c1.7-0.2,2.9-0.4,2.9-0.4s-1.1-0.2-2.9-0.4c-1.7-0.2-4-0.3-6.3-0.3
	c-2.3,0-4.6,0.1-6.3,0.3c-1.2,0.1-2.2,0.2-2.6,0.3l38.4-32.1l0.7,0.5l-22.9,39.6l42.8,1.4l-44.4,1.4L202,306.2l63.6,1.6l-65.6,1.7
	l-6.5,11.3l142.3,2.6l-145.3,2.7l-19.7,34.1l128.3,2.9l-91.1,2l215.6,3.2l-286.2-0.1l0-0.4H73.4z"/>
</svg>
